The Twilight Saga Eclipse (2010) 720P AC3+DTS Eng-NLSubs-DMT

Verenigde Staten
Mystery / Thriller
124 minuten

geregisseerd door David Slade
met Kristen Stewart, Robert Pattinson en Taylor Lautner

Bella Swan (Kristen Stewart) is wederom omcirkeld met gevaar als Seattle wordt geteisterd door een opeenvolging 
van geheimzinnige moorden en een kwaadwillige vampier die haar zoektocht naar wraak voortzet. 
In het midden van dit alles wordt zij gedwongen om tussen haar liefde voor Edward (Robert Pattinson) 
en haar vriendschap met Jacob (Taylor Lautner) te kiezen - wetend dat haar besluit de potentie heeft 
om de eeuwige strijd tussen vampier en weerwolf opnieuw aan te wakkeren. 
Terwijl haar eindexamen snel naderbij komt, wordt Bella geconfronteerd met het belangrijkste besluit van haar leven
---------------------------------------------------------------------------------------------------------------------

PLOT

As a string of mysterious killings grips Seattle, Bella, whose high school graduation is fast approaching, 
is forced to choose between her love for vampire Edward and her friendship with werewolf Jacob.
----------------------------------------------------------------------------------------------------------------------
 
http://www.youtube.com/watch?v=Q1D5goGz0SY

MM:    http://www.moviemeter.nl/film/60820

IMDB:    http://www.imdb.com/title/tt1325004/
-----------------------------------------------------------------------------------------------------------------------

INFO

Source.........: 1080P BluRay 
FRAME RATE.....: 23.976Fps 
VIDEO CODEC....: X264
AUDIO 1........: AC3
Audio 2........: DTS
RESOLUTION.....: 1280X528
RUNTIME........: 124 MINS 
GENERE.........: Drama | Fantasy | Romance
LANGUAGE.......: English
SUBTITLES......: English & Dutch

Thanks To Bradje 

Enjoy
------------------------------------------------------------------------------------------------------------------------

General
Complete name                    : The.Twilight.Saga.Eclipse.2010.720P.AC3.DTS.Eng.NLSubs-DMT.mkv
Format                           : Matroska
File size                        : 7.10 GiB
Duration                         : 2h 3mn
Overall bit rate                 : 8 204 Kbps
Movie name                       : The Twilight Saga Eclipse (2010) 720P.X264.NL.SUBBED.Bradje
Encoded date                     : UTC 2010-11-17 07:35:27
Writing application              : mkvmerge v3.3.0 ('Language') built on Mar 24 2010 14:59:24
Writing library                  : libebml v0.8.0 + libmatroska v0.9.0

Video
ID                               : 1
Format                           : AVC
Format/Info                      : Advanced Video Codec
Format profile                   : High@L3.1
Format settings, CABAC           : Yes
Format settings, ReFrames        : 5 frames
Muxing mode                      : Container profile=Unknown@3.1
Codec ID                         : V_MPEG4/ISO/AVC
Duration                         : 2h 3mn
Bit rate                         : 6 057 Kbps
Width                            : 1 280 pixels
Height                           : 528 pixels
Display aspect ratio             : 2.40:1
Frame rate                       : 23.976 fps
Color space                      : YUV
Chroma subsampling               : 4:2:0
Bit depth                        : 8 bits
Scan type                        : Progressive
Bits/(Pixel*Frame)               : 0.374
Stream size                      : 5.10 GiB (72%)
Title                            : x264
Writing library                  : x264 core 107 r1772 c9dad9e
Encoding settings                : cabac=1 / ref=5 / deblock=1:0:0 / analyse=0x3:0x113 / 
me=umh / subme=7 / psy=1 / psy_rd=1.00:0.20 / mixed_ref=1 / me_range=16 / chroma_me=1 / 
trellis=1 / 8x8dct=1 / cqm=0 / deadzone=21,11 / fast_pskip=1 / chroma_qp_offset=-3 / 
threads=12 / sliced_threads=0 / nr=0 / decimate=1 / interlaced=0 / constrained_intra=0 / 
bframes=3 / b_pyramid=2 / b_adapt=1 / b_bias=0 / direct=3 / weightb=1 / open_gop=0 / 
weightp=0 / keyint=250 / keyint_min=23 / scenecut=40 / intra_refresh=0 / rc_lookahead=40 / 
rc=2pass / mbtree=1 / bitrate=6057 / ratetol=1.0 / qcomp=0.60 / qpmin=10 / qpmax=51 / 
qpstep=4 / cplxblur=20.0 / qblur=0.5 / ip_ratio=1.40 / aq=1:1.00
Language                         : English

Audio #1
ID                               : 2
Format                           : AC-3
Format/Info                      : Audio Coding 3
Mode extension                   : CM (complete main)
Codec ID                         : A_AC3
Duration                         : 2h 3mn
Bit rate mode                    : Constant
Bit rate                         : 640 Kbps
Channel(s)                       : 6 channels
Channel positions                : Front: L C R, Side: L R, LFE
Sampling rate                    : 48.0 KHz
Bit depth                        : 16 bits
Stream size                      : 567 MiB (8%)
Title                            : AC3
Language                         : English

Audio #2
ID                               : 3
Format                           : DTS
Format/Info                      : Digital Theater Systems
Codec ID                         : A_DTS
Duration                         : 2h 3mn
Bit rate mode                    : Constant
Bit rate                         : 1 510 Kbps
Channel(s)                       : 6 channels
Channel positions                : Front: L C R, Side: L R, LFE
Sampling rate                    : 48.0 KHz
Bit depth                        : 24 bits
Stream size                      : 1.31 GiB (18%)
Title                            : DTS
Language                         : English

Text #1
ID                               : 4
Format                           : UTF-8
Codec ID                         : S_TEXT/UTF8
Codec ID/Info                    : UTF-8 Plain Text
Title                            : Subtitles
Language                         : Dutch

Text #2
ID                               : 5
Format                           : UTF-8
Codec ID                         : S_TEXT/UTF8
Codec ID/Info                    : UTF-8 Plain Text
Title                            : Subtitles
Language                         : English

Menu
00:00:00.000                     : en:00:00:00.000
00:08:47.694                     : en:00:08:47.694
00:17:37.515                     : en:00:17:37.515
00:25:17.516                     : en:00:25:17.516
00:30:20.402                     : en:00:30:20.402
00:36:45.078                     : en:00:36:45.078
00:43:31.776                     : en:00:43:31.776
00:50:13.761                     : en:00:50:13.761
00:55:34.373                     : en:00:55:34.373
01:00:11.608                     : en:01:00:11.608
01:06:12.218                     : en:01:06:12.218
01:13:05.214                     : en:01:13:05.214
01:19:43.362                     : en:01:19:43.362
01:25:15.819                     : en:01:25:15.819
01:31:27.232                     : en:01:31:27.232
01:35:54.958                     : en:01:35:54.958
01:43:19.985                     : en:01:43:19.985
01:51:53.498                     : en:01:51:53.498

